<?xml version="1.0" encoding="utf-8"?>
<!-- Generator: Adobe Illustrator 22.1.0, SVG Export Plug-In . SVG Version: 6.00 Build 0)  -->
<svg version="1.1" id="Calque_1" xmlns="http://www.w3.org/2000/svg" xmlns:xlink="http://www.w3.org/1999/xlink" x="0px" y="0px"
	 viewBox="0 0 24 24" style="enable-background:new 0 0 24 24;" xml:space="preserve">
<path d="M18.9,0H5.1C2.3,0,0,2.3,0,5.1v13.9C0,21.7,2.3,24,5.1,24h7.8v-9.3H9.7v-3.6h3.1V8.4c0-3.1,1.9-4.8,4.7-4.8
	c1.3,0,2.5,0.1,2.8,0.1V7l-1.9,0c-1.5,0-1.8,0.7-1.8,1.8v2.3h3.6l-0.5,3.6h-3.1V24h2.4c2.8,0,5.1-2.3,5.1-5.1V5.1
	C24,2.3,21.7,0,18.9,0z"/>
</svg>
