<?xml version="1.0" encoding="utf-8"?>
<!-- Generator: Adobe Illustrator 22.1.0, SVG Export Plug-In . SVG Version: 6.00 Build 0)  -->
<svg version="1.1" id="Calque_1" xmlns="http://www.w3.org/2000/svg" xmlns:xlink="http://www.w3.org/1999/xlink" x="0px" y="0px"
	 viewBox="0 0 200 70" style="enable-background:new 0 0 200 70;" xml:space="preserve">
<style type="text/css">
	.st0{fill:none;}
	.st1{fill:#1A1A1A;}
</style>
<g>
	<rect x="8.8" y="7.8" class="st0" width="182.5" height="54.5"/>
	<path class="st1" d="M35.1,29.1v0.4c0,9.5-7.3,17.4-15.2,17.4H8.8v-0.6c0,0,3.7,0,3.7-3.2V15.5c0-3.2-3.7-3.2-3.7-3.2v-0.6h11.1
		C27.8,11.8,35.1,19.6,35.1,29.1z M17.9,12.6h-0.2v33.4h0.2c8.9,0,12.2-8.4,12.2-16.5v-0.4C30,21.1,26.8,12.6,17.9,12.6z"/>
	<path class="st1" d="M55.4,46.6v0.4h-7.6v-2.4c-4.3,4.5-10.6,2.2-10.6-2.6c0-5.2,8.1-6,10.6-9.1c0-3.6-2-6-4.3-5.7
		c-2.4,0.4-3.2,4.8-2.5,7.2l-3.2-2.7c1.1-3.2,4.2-5.4,8-5.4c4,0,7.3,2.4,7.3,5.9v12.4C53,46.6,55.4,46.6,55.4,46.6z M47.8,43.6V34
		c-1.9,2.1-6.2,3.4-6.2,7.6C41.6,45.4,45.6,45.8,47.8,43.6z"/>
	<path class="st1" d="M56.7,46.9v-0.4c0,0,2.4,0,2.4-2V28.6c0-2.1-2.4-2.1-2.4-2.1v-0.3h7.6v18.3c0,2,2.4,2,2.4,2v0.4H56.7z
		 M58.6,20.2c0-1.7,1.4-3.1,3.1-3.1c1.7,0,3.1,1.4,3.1,3.1c0,1.7-1.4,3.1-3.1,3.1C60,23.3,58.6,21.9,58.6,20.2z"/>
	<path class="st1" d="M78.1,46.6v0.4h-10v-0.4c0,0,2.4,0,2.4-2V11.7c0-2.1-2.4-2.1-2.4-2.1V9.3l7.6-1.5v36.8
		C75.7,46.6,78.1,46.6,78.1,46.6z"/>
	<path class="st1" d="M101.3,26.6c0,0-2.4,0-2.4,2.1v24.7c0,5.9-5.6,9.1-10.1,9.1c-3.8,0-7.2-2.4-8.3-6.3l4.2-4.1
		c-0.8,3.6,0.4,9.4,3.2,9.6c2.4,0.3,5.8-3.4,5.8-9.1v-7.7c-1.4,1.3-3.1,2.1-5.3,2.1c-4,0-7.3-2.2-7.3-8.4v-9.9
		c0-2.1-2.4-2.1-2.4-2.1v-0.3h10v0.3c0,0-2.4,0-2.4,2.1v11.3c0,5.4,2.6,6.2,4.3,5.8c1.1-0.2,2.2-1.3,3.1-2.4V28.6
		c0-2.1-2.4-2.1-2.4-2.1v-0.3h10V26.6z"/>
	<path class="st1" d="M127.3,12.3c0,0-3,0.3-3,2.1v32.5h-3.8l-14.2-31.9v29.2c0,1.8,3,2.1,3,2.1v0.6h-6.8v-0.6c0,0,3-0.3,3-2.1V14.4
		c0-1.8-3-2.1-3-2.1v-0.6h8.1l12.9,28.9V14.4c0-1.8-3-2.1-3-2.1v-0.6h6.8V12.3z"/>
	<path class="st1" d="M143.4,33.7l-0.8,0.2l-3.5,1l-6.7,1.9c0.1,0.2,0.1,0.4,0.2,0.6c1.1,4.1,2.7,7.7,5.3,7.7c1.8,0,3-1.9,4.1-3.8
		l0.6,0.3c-1.3,3.1-3.6,5.3-6.8,5.3c-4.4,0-8-4.6-8-10.4s3.6-10.4,8-10.4C138.9,26.2,142.1,28.6,143.4,33.7z M138.8,34.1
		c0.2-3.6-2.8-7.6-5.5-6.4c-1.8,0.7-2,4-1.1,8.2L138.8,34.1z"/>
	<path class="st1" d="M171,26.2h5.5v0.3c0,0-2.3,0-3.1,2.1l-7.4,18.3h-1l-5-12.5l-5,12.5h-1l-7.4-18.3c-0.8-2.1-3.1-2.1-3.1-2.1
		v-0.3h10.2v0.3c0,0-2.2,0-1.4,2.1l4.5,11.4l2.7-6.7l-1.9-4.6c-0.8-2.1-3.1-2.1-3.1-2.1v-0.3h10.1v0.3c0,0-2.2,0-1.4,2.1l4.6,11.4
		l4.6-11.4c0.8-2.1-1.4-2.1-1.4-2.1V26.2z"/>
	<path class="st1" d="M179.1,28.9c-0.5,2.7,4.9,4.5,8,7.7c0.4,0.4,2.2,2.4,1.8,5.2c-0.3,3.4-3.8,5.4-6.9,5.1c-2.4-0.2-4.7-1.1-6.2-3
		l2.8-3.7c0,6.7,6.3,7.6,7.1,4c0.6-2.7-4.6-4.5-8-7.7c-0.4-0.4-2.1-2.5-1.8-5.3c0.3-3.4,3.8-5.4,6.9-5c2.4,0.2,4.8,1.1,6.2,2.9
		l-2.8,3.8C186.2,26.2,179.8,25.4,179.1,28.9z"/>
</g>
<g>
</g>
<g>
</g>
<g>
</g>
<g>
</g>
<g>
</g>
<g>
</g>
<g>
</g>
<g>
</g>
<g>
</g>
<g>
</g>
<g>
</g>
<g>
</g>
<g>
</g>
<g>
</g>
<g>
</g>
</svg>
